<svg id="cc0023c7-ca94-4445-86b6-baf77f717206" data-name="Icons" xmlns="http://www.w3.org/2000/svg" viewBox="0 0 20.1 20.1"><title>absa_icon</title><polygon points="2.05 18.05 3.05 18.05 3.05 8.05 7.05 8.05 7.05 7.05 2.05 7.05 2.05 18.05"/><polygon points="8.05 2.05 8.05 18.05 9.05 18.05 9.05 3.05 17.05 3.05 17.05 18.05 18.05 18.05 18.05 2.05 8.05 2.05"/><polygon points="11.05 18.05 12.05 18.05 12.05 14.05 14.05 14.05 14.05 18.05 15.05 18.05 15.05 13.05 11.05 13.05 11.05 18.05"/><rect x="10.05" y="4.05" width="1" height="2"/><rect x="12.05" y="4.05" width="1" height="2"/><rect x="14.05" y="4.05" width="1" height="2"/><rect x="10.05" y="7.05" width="1" height="2"/><rect x="12.05" y="7.05" width="1" height="2"/><rect x="14.05" y="7.05" width="1" height="2"/><rect x="10.05" y="10.05" width="1" height="2"/><rect x="12.05" y="10.05" width="1" height="2"/><rect x="14.05" y="10.05" width="1" height="2"/></svg>