<svg id="a3c791f0-d07b-44c7-b873-033cdf97f584" data-name="Icons" xmlns="http://www.w3.org/2000/svg" viewBox="0 0 20.1 20.1"><title>absa_icon</title><path d="M17,8.05h-4.9V3.4A1.36,1.36,0,0,0,10.7,2.05H4.4A1.36,1.36,0,0,0,3.05,3.4V16.7A1.36,1.36,0,0,0,4.4,18.05h7.65v-1H4.4a.35.35,0,0,1-.35-.35V7a1.76,1.76,0,0,0,.39.06h6.22A1.76,1.76,0,0,0,11.05,7V8.05H8.15a1.11,1.11,0,0,0-1.1,1.1V15a1.11,1.11,0,0,0,1.1,1.1H17a1.11,1.11,0,0,0,1.1-1.1V9.15A1.11,1.11,0,0,0,17,8.05Zm-6.29-2H4.44a.4.4,0,0,1-.39-.39V3.44a.4.4,0,0,1,.39-.39h6.22a.4.4,0,0,1,.39.39V5.66A.4.4,0,0,1,10.66,6.05ZM17.05,15a.11.11,0,0,1-.1.1H8.15a.11.11,0,0,1-.1-.1v-3.9h8v-1h-8v-.9a.11.11,0,0,1,.1-.1H17a.11.11,0,0,1,.1.1Z"/><rect x="5.05" y="9.05" width="1" height="1"/><rect x="5.05" y="11.05" width="1" height="1"/><rect x="5.05" y="13.05" width="1" height="1"/><polygon points="10.05 13.05 9.05 13.05 9.05 13.05 9.05 14.05 9.05 14.05 12.05 14.05 12.05 13.05 10.05 13.05 10.05 13.05"/><rect x="5.05" y="15.05" width="1" height="1"/></svg>